{
  "accessors": [
    {
      "bufferView": 2,
      "componentType": 5126,
      "count": 36619,
      "max": [
        0.21743281185626984,
        0.24737901985645294,
        0.4331372082233429
      ],
      "min": [
        -0.2177431583404541,
        -0.08887632191181183,
        0.0020006566774100065
      ],
      "type": "VEC3"
    },
    {
      "bufferView": 2,
      "byteOffset": 439428,
      "componentType": 5126,
      "count": 36619,
      "max": [
        0.9999890327453613,
        0.9999982714653015,
        0.9996843338012695
      ],
      "min": [
        -0.9999262094497681,
        -0.9999855160713196,
        -0.9999935626983643
      ],
      "type": "VEC3"
    },
    {
      "bufferView": 3,
      "componentType": 5126,
      "count": 36619,
      "max": [
        0.999944269657135,
        0.9999724626541138,
        0.9999880790710449,
        1.0
      ],
      "min": [
        -1.0,
        -0.9999212622642517,
        -0.9999962449073792,
        -1.0
      ],
      "type": "VEC4"
    },
    {
      "bufferView": 1,
      "componentType": 5126,
      "count": 36619,
      "max": [
        0.9719781875610352,
        0.9904152154922485
      ],
      "min": [
        0.003463831264525652,
        0.029031140729784966
      ],
      "type": "VEC2"
    },
    {
      "bufferView": 0,
      "componentType": 5125,
      "count": 149382,
      "type": "SCALAR"
    }
  ],
  "asset": {
    "extras": {
      "author": "CoryRichards (https://sketchfab.com/CoryRichards)",
      "license": "CC-BY-4.0 (http://creativecommons.org/licenses/by/4.0/)",
      "source": "https://sketchfab.com/3d-models/whimsicott-pokemon-7bc5998550464c11a982933635db22ba",
      "title": "Whimsicott (Pokemon)"
    },
    "generator": "Sketchfab-12.65.0",
    "version": "2.0"
  },
  "bufferViews": [
    {
      "buffer": 0,
      "byteLength": 597528,
      "name": "floatBufferViews",
      "target": 34963
    },
    {
      "buffer": 0,
      "byteLength": 292952,
      "byteOffset": 597528,
      "byteStride": 8,
      "name": "floatBufferViews",
      "target": 34962
    },
    {
      "buffer": 0,
      "byteLength": 878856,
      "byteOffset": 890480,
      "byteStride": 12,
      "name": "floatBufferViews",
      "target": 34962
    },
    {
      "buffer": 0,
      "byteLength": 585904,
      "byteOffset": 1769336,
      "byteStride": 16,
      "name": "floatBufferViews",
      "target": 34962
    }
  ],
  "buffers": [
    {
      "byteLength": 2355240,
      "uri": "scene.bin"
    }
  ],
  "images": [
    {
      "uri": "textures/whimsicott_mat_baseColor.jpeg"
    },
    {
      "uri": "textures/whimsicott_mat_normal.png"
    }
  ],
  "materials": [
    {
      "doubleSided": true,
      "name": "whimsicott_mat",
      "normalTexture": {
        "index": 1
      },
      "pbrMetallicRoughness": {
        "baseColorTexture": {
          "index": 0
        },
        "metallicFactor": 0.0
      }
    }
  ],
  "meshes": [
    {
      "name": "green_whimsicott_mat_0",
      "primitives": [
        {
          "attributes": {
            "NORMAL": 1,
            "POSITION": 0,
            "TANGENT": 2,
            "TEXCOORD_0": 3
          },
          "indices": 4,
          "material": 0,
          "mode": 4
        }
      ]
    }
  ],
  "nodes": [
    {
      "children": [
        1
      ],
      "matrix": [
        1.0,
        0.0,
        0.0,
        0.0,
        0.0,
        2.220446049250313e-16,
        -1.0,
        0.0,
        0.0,
        1.0,
        2.220446049250313e-16,
        0.0,
        0.0,
        0.0,
        0.0,
        1.0
      ],
      "name": "Sketchfab_model"
    },
    {
      "children": [
        2
      ],
      "matrix": [
        1.0,
        0.0,
        0.0,
        0.0,
        0.0,
        0.0,
        1.0,
        0.0,
        0.0,
        -1.0,
        0.0,
        0.0,
        0.0,
        0.0,
        0.0,
        1.0
      ],
      "name": "2ddd19e305fa4b0ea983b334c80c305c.fbx"
    },
    {
      "children": [
        3
      ],
      "name": "RootNode"
    },
    {
      "children": [
        4
      ],
      "matrix": [
        100.0,
        0.0,
        0.0,
        0.0,
        0.0,
        -1.629206793918314e-05,
        -99.99999999999868,
        0.0,
        0.0,
        99.99999999999868,
        -1.629206793918314e-05,
        0.0,
        0.0,
        0.0,
        0.0,
        1.0
      ],
      "name": "green"
    },
    {
      "mesh": 0,
      "name": "green_whimsicott_mat_0"
    }
  ],
  "samplers": [
    {
      "magFilter": 9729,
      "minFilter": 9987,
      "wrapS": 10497,
      "wrapT": 10497
    }
  ],
  "scene": 0,
  "scenes": [
    {
      "name": "Sketchfab_Scene",
      "nodes": [
        0
      ]
    }
  ],
  "textures": [
    {
      "sampler": 0,
      "source": 0
    },
    {
      "sampler": 0,
      "source": 1
    }
  ]
}
